<?xml version="1.0" encoding="UTF-8"?>
<svg width="325px" height="38px" viewBox="0 0 325 38" version="1.1" xmlns="http://www.w3.org/2000/svg" xmlns:xlink="http://www.w3.org/1999/xlink">
    <title>Logos/NYP/Horizontal/Red</title>
    <g id="Navigation" stroke="none" stroke-width="1" fill="none" fill-rule="evenodd">
        <g id="D/Header" transform="translate(-80.000000, -22.000000)" fill="#E12726">
            <g id="Logos/NYP/Horizontal/Red">
                <g transform="translate(80.000000, 22.000000)">
                    <path d="M254.849783,25.0042754 L254.554841,25.090942 C254.039162,25.2435507 253.433309,25.317029 252.705347,25.317029 C251.48237,25.317029 250.970448,24.9675362 250.970448,22.8008696 L250.970448,15.6904348 L255.047038,15.6904348 L255.047038,11.8403623 L250.970448,11.8403623 L250.970448,5.44681159 L246.1875,6.7307971 L246.1875,11.8403623 L241.304046,11.8403623 L239.256358,17.7186232 C238.833671,18.9376087 238.267269,20.7180435 237.865246,22.1857246 C237.539306,20.9347101 237.160766,19.629058 236.770954,18.427029 L234.453685,11.8403623 L229.095882,11.8403623 L235.386416,28.8816667 L234.878251,30.2843478 C234.14935,32.3973188 232.982731,33.4241304 231.310766,33.4241304 C230.665462,33.4241304 229.919653,33.3054348 229.265896,33.0981884 L228.980347,33.0077536 L228.402673,37.2553623 L228.631864,37.3034058 C229.283743,37.440942 230.320737,37.5455072 231.041185,37.5455072 C235.256792,37.5455072 237.603179,35.4777536 239.698772,29.9169565 L246.1875,12.5704348 L246.1875,23.9492029 C246.1875,28.079058 247.475289,29.4723188 251.291691,29.4723188 C252.405708,29.4723188 253.788367,29.2923913 254.988801,28.9918841 L255.199205,28.9391304 L254.849783,25.0042754 Z M324.334032,17.0931159 C324.334032,13.4352174 322.523049,11.5021739 319.09552,11.5021739 C316.873121,11.5021739 314.984176,12.415942 313.765896,14.0447101 C313.828829,13.3664493 313.858887,12.6392029 313.858887,12.0937681 L313.858887,11.8403623 L309.27789,11.8403623 L309.27789,29.1350725 L314.093714,29.1350725 L314.093714,20.7745652 C314.093714,17.9343478 315.719653,15.6226087 317.715679,15.6226087 C319.036344,15.6226087 319.551084,16.3281884 319.551084,18.1397101 L319.551084,29.1350725 L324.334032,29.1350725 L324.334032,17.0931159 Z M301.621604,21.8550725 C301.621604,23.6826087 300.378902,25.6552174 298.370665,25.6552174 C297.330853,25.6552174 296.601951,24.9543478 296.601951,23.9492029 C296.601951,22.9883333 297.13078,21.7165942 301.621604,21.6713768 L301.621604,21.8550725 Z M302.011416,27.1012319 C301.96539,27.7597101 301.956936,28.3955797 301.956936,28.8816667 L301.956936,29.1350725 L306.591474,29.1350725 L306.571749,28.8628261 C306.459971,27.3433333 306.438367,25.6834783 306.438367,24.5577536 L306.438367,17.6328986 C306.438367,13.3118116 304.346532,11.4682609 299.448049,11.4682609 C297.279191,11.4682609 294.817269,11.9157246 293.023194,12.6354348 L292.825,12.7145652 L293.642197,16.5354348 L293.924928,16.412971 C295.482298,15.7384783 297.471749,15.2853623 298.875072,15.2853623 C300.877673,15.2853623 301.621604,16.0135507 301.621604,17.971087 L301.621604,18.3271739 C295.383671,18.3836957 291.955202,20.5428261 291.955202,24.4230435 C291.955202,27.4431884 293.977529,29.4723188 296.988945,29.4723188 C299.076084,29.4723188 300.93591,28.5698551 302.011416,27.1012319 L302.011416,27.1012319 Z M290.173338,6.99268116 C290.173338,5.37333333 288.879913,4.10442029 287.227673,4.10442029 C285.62146,4.10442029 284.313006,5.40065217 284.313006,6.99268116 C284.313006,8.59318841 285.592341,9.84702899 287.227673,9.84702899 C288.851734,9.84702899 290.173338,8.56681159 290.173338,6.99268116 L290.173338,6.99268116 Z M284.818353,29.1350725 L289.635116,29.1350725 L289.635116,11.8403623 L284.818353,11.8403623 L284.818353,29.1350725 Z M278.015896,22.0236957 C278.015896,19.3549275 278.535332,17.5726087 279.561055,16.7266667 C280.251445,16.1557971 281.169147,15.9928261 282.362066,16.2264493 L282.649494,16.282971 L282.876806,11.5257246 L282.636344,11.5031159 C280.508815,11.3052899 278.78237,12.2218841 277.660838,14.1097101 C277.742558,13.3306522 277.779191,12.6015217 277.779191,12.0937681 L277.779191,11.8403623 L273.198194,11.8403623 L273.198194,29.1350725 L278.015896,29.1350725 L278.015896,22.0236957 Z M263.840824,15.1845652 C264.615751,15.1845652 265.265751,15.4313768 265.717558,15.9005072 C266.211633,16.4092029 266.474639,17.1741304 266.487789,18.1227536 L260.864162,18.1227536 C261.161922,16.3027536 262.282514,15.1845652 263.840824,15.1845652 L263.840824,15.1845652 Z M270.530564,28.3757971 L270.721243,28.3042029 L270.174566,24.505942 L269.876806,24.6265217 C268.326012,25.2557971 266.681286,25.5873913 265.121098,25.5873913 C263.565607,25.5873913 262.467558,25.2407246 261.762139,24.5257246 C261.11026,23.8644203 260.780564,22.8734058 260.760838,21.5008696 L271.057514,21.5008696 L271.096026,21.2926812 C271.251012,20.4344928 271.267919,19.3210145 271.267919,18.882971 C271.267919,14.2613768 268.579624,11.5021739 264.07565,11.5021739 C259.172471,11.5021739 255.876445,15.1742029 255.876445,20.638913 C255.876445,26.5002174 258.737572,29.4723188 264.379986,29.4723188 C266.412645,29.4723188 268.653829,29.0728986 270.530564,28.3757971 L270.530564,28.3757971 Z M217.995159,20.7406522 C217.995159,18.2433333 219.170231,15.5896377 221.347543,15.5896377 C222.466257,15.5896377 223.955997,16.0531159 223.955997,20.0652174 C223.955997,23.6336232 222.587428,25.5205072 219.998699,25.5205072 C219.192775,25.5205072 218.54935,25.4442029 217.995159,25.2831159 L217.995159,20.7406522 Z M228.97565,19.6262319 C228.97565,14.462971 226.636777,11.5021739 222.559249,11.5021739 C220.596098,11.5021739 218.922254,12.2784058 217.881503,13.6245652 C217.951951,12.9265217 217.995159,12.1408696 217.995159,11.4513043 L217.995159,3.96971014 L213.179335,3.96971014 L213.179335,28.6 L213.363439,28.6518116 C215.377312,29.2198551 217.320737,29.4723188 219.662428,29.4723188 C225.406286,29.4723188 228.97565,25.6994928 228.97565,19.6262319 L228.97565,19.6262319 Z M211.10065,23.6458696 C211.10065,20.2630435 208.626517,19.3558696 206.639884,18.6267391 C205.124783,18.07 204.19487,17.680942 204.19487,16.7210145 C204.19487,15.5067391 205.395303,15.2514493 206.40224,15.2514493 C207.380058,15.2514493 208.431142,15.404058 209.360116,15.6800725 L209.66539,15.7705072 L209.900217,11.8573188 L209.687934,11.8121014 C208.686633,11.5963768 207.534104,11.4682609 206.604191,11.4682609 C201.176879,11.4682609 199.244725,14.3734783 199.244725,17.0931159 C199.244725,20.5889855 201.678468,21.4339855 203.634104,22.1131884 C205.12948,22.6331884 206.048121,23.0034058 206.048121,24.017029 C206.048121,24.9713043 205.08815,25.5873913 203.604986,25.5873913 C202.357587,25.5873913 201.09422,25.349058 200.137066,24.9336232 L199.813006,24.7932609 L199.462645,28.9673913 L199.664595,29.023913 C200.690318,29.3131159 202.04104,29.4723188 203.471604,29.4723188 C208.032876,29.4723188 211.10065,27.1304348 211.10065,23.6458696 L211.10065,23.6458696 Z M189.846026,15.1845652 C190.620014,15.1845652 191.269075,15.4313768 191.721821,15.9005072 C192.214017,16.4092029 192.478902,17.1741304 192.491113,18.1227536 L186.867486,18.1227536 C187.164306,16.3018116 188.287717,15.1845652 189.846026,15.1845652 L189.846026,15.1845652 Z M196.534827,28.3757971 L196.725506,28.3042029 L196.178829,24.505942 L195.88013,24.6265217 C194.328396,25.2557971 192.68461,25.5873913 191.124422,25.5873913 C189.56987,25.5873913 188.471821,25.2407246 187.767341,24.5257246 C187.114523,23.8644203 186.783887,22.8734058 186.764162,21.5008696 L197.061777,21.5008696 L197.09935,21.2926812 C197.255275,20.4335507 197.270303,19.3210145 197.270303,18.882971 C197.270303,14.2613768 194.583887,11.5021739 190.080853,11.5021739 C185.174855,11.5021739 181.878829,15.1742029 181.878829,20.638913 C181.878829,26.5002174 184.739957,29.4723188 190.383309,29.4723188 C192.415029,29.4723188 194.658092,29.0728986 196.534827,28.3757971 L196.534827,28.3757971 Z M176.410188,22.0236957 C176.410188,19.3549275 176.931503,17.5726087 177.956286,16.7266667 C178.647616,16.1557971 179.564379,15.9928261 180.757298,16.2264493 L181.044725,16.282971 L181.272977,11.5257246 L181.032514,11.5031159 C178.904986,11.3052899 177.17854,12.2228261 176.057009,14.1097101 C176.13685,13.3306522 176.174422,12.6015217 176.174422,12.0937681 L176.174422,11.8403623 L171.593425,11.8403623 L171.593425,29.1350725 L176.410188,29.1350725 L176.410188,22.0236957 Z M159.434104,9.79898551 C159.853035,9.78014493 160.281358,9.78014493 160.730347,9.78014493 C163.401734,9.78014493 164.755275,10.9557971 164.755275,13.2760145 C164.755275,15.5444203 163.108671,16.9753623 160.460766,17.0083333 C160.133887,17.0083333 159.781647,16.9847826 159.434104,16.9395652 L159.434104,9.79898551 Z M159.434104,21.1231159 C159.888728,21.1626812 160.327384,21.1626812 160.663656,21.1626812 C166.04776,21.1626812 169.806864,17.8081159 169.806864,13.0056522 C169.806864,8.35768116 166.560621,5.69268116 160.898483,5.69268116 C158.421532,5.69268116 156.478107,5.73507246 154.789234,5.8273913 L154.549711,5.84057971 L154.549711,29.1350725 L159.434104,29.1350725 L159.434104,21.1231159 Z M143.336272,21.4999275 L152.12724,21.4999275 L152.12724,17.5142029 L143.336272,17.5142029 L143.336272,21.4999275 Z M137.277746,19.7684783 L143.336272,11.8403623 L137.439306,11.8403623 L132.940029,18.2819565 L132.940029,3.96971014 L128.123266,3.96971014 L128.123266,29.1350725 L132.940029,29.1350725 L132.940029,21.4537681 L137.733309,29.1350725 L143.74487,29.1350725 L137.277746,19.7684783 Z M121.571604,22.0236957 C121.571604,19.3549275 122.09198,17.5726087 123.117702,16.7266667 C123.807153,16.1557971 124.725795,15.9928261 125.918714,16.2264493 L126.206142,16.282971 L126.433454,11.5257246 L126.192052,11.5031159 C124.06828,11.3052899 122.339957,12.2228261 121.218425,14.1097101 C121.298266,13.3306522 121.335838,12.6015217 121.335838,12.0937681 L121.335838,11.8403623 L116.754841,11.8403623 L116.754841,29.1350725 L121.571604,29.1350725 L121.571604,22.0236957 Z M109.536272,20.4024638 C109.536272,23.4131884 108.200578,25.284058 106.050506,25.284058 C103.704118,25.284058 102.56474,23.6656522 102.56474,20.3355797 C102.56474,16.8821014 104.477168,15.6565217 106.116257,15.6565217 C108.416618,15.6565217 109.536272,17.2089855 109.536272,20.4024638 L109.536272,20.4024638 Z M114.486416,20.1660145 C114.486416,14.5788406 111.622471,11.5021739 106.419653,11.5021739 C101.234682,11.5021739 97.6127168,15.3155072 97.6127168,20.7745652 C97.6127168,26.4644203 100.401517,29.4723188 105.67854,29.4723188 C110.783671,29.4723188 114.486416,25.5581884 114.486416,20.1660145 L114.486416,20.1660145 Z M93.621604,20.8668841 L101.017702,5.8273913 L95.8026734,5.8273913 L92.8710983,12.0881159 C92.2953035,13.3278261 91.7044798,14.6033333 91.2460983,15.7865217 C90.8328035,14.6975362 90.3866329,13.6273913 89.8944364,12.5280435 L86.8294798,5.8273913 L81.4820087,5.8273913 L88.737211,20.8998551 L88.737211,29.1350725 L93.621604,29.1350725 L93.621604,20.8668841 Z M84.3769509,11.8403623 L79.4315029,11.8403623 L77.4561416,18.5815217 C77.0992052,19.9323913 76.7929913,21.1476087 76.5140173,22.4523188 C76.1984104,21.1165217 75.8142341,19.8221739 75.3812139,18.3657971 L73.2696532,11.8403623 L68.7572254,11.8403623 L66.6804191,18.5749275 C66.3028179,19.857029 65.9590318,21.0562319 65.6697254,22.4118116 C65.4311416,21.4584783 65.1775289,20.5164493 64.9323699,19.596087 C64.8215318,19.1881884 64.7144509,18.7821739 64.6064306,18.3752174 L62.7691474,11.8403623 L57.5212428,11.8403623 L62.7945087,29.1350725 L67.6150289,29.1350725 L69.7895231,21.9652899 C70.0919798,21.0110145 70.408526,19.9672464 70.7081647,18.7369565 C70.9223266,19.662971 71.1543353,20.5541304 71.4304913,21.5291304 L73.9140173,29.1350725 L78.9637283,29.1350725 L84.3769509,11.8403623 Z M49.7879335,15.1845652 C50.5628613,15.1845652 51.211922,15.4313768 51.6646676,15.9005072 C52.1568642,16.4092029 52.4208092,17.1741304 52.4339595,18.1227536 L46.8103324,18.1227536 C47.1071532,16.3027536 48.2296243,15.1845652 49.7879335,15.1845652 L49.7879335,15.1845652 Z M56.4767341,28.3757971 L56.6683526,28.3042029 L56.1216763,24.505942 L55.8220376,24.6265217 C54.2721821,25.2557971 52.6274566,25.5873913 51.0672688,25.5873913 C49.5127168,25.5873913 48.4146676,25.2407246 47.7092486,24.5257246 C47.0573699,23.8644203 46.7276734,22.8734058 46.7070087,21.5008696 L57.0046243,21.5008696 L57.0412572,21.2926812 C57.1962428,20.4335507 57.2140896,19.3210145 57.2140896,18.882971 C57.2140896,14.2613768 54.5248555,11.5021739 50.0227601,11.5021739 C45.1177023,11.5021739 41.8216763,15.1742029 41.8216763,20.638913 C41.8216763,26.5002174 44.6828035,29.4723188 50.3270954,29.4723188 C52.358815,29.4723188 54.6,29.0728986 56.4767341,28.3757971 L56.4767341,28.3757971 Z M39.6678468,5.8273913 L34.9515896,5.8273913 L34.9515896,11.8234058 C34.9515896,14.5392754 35.0229769,18.8396377 35.1234827,21.5168841 C34.5946532,20.3280435 34.0244942,19.1891304 33.4703035,18.2188406 L26.5278902,5.8273913 L20.3350434,5.8273913 L20.3350434,29.1350725 L25.049422,29.1350725 L25.049422,22.7000725 C25.049422,19.9653623 24.9836705,15.8892029 24.8888006,13.3702174 C25.2823699,14.2830435 25.7585983,15.2542754 26.3625723,16.4402899 L33.4740607,29.1350725 L39.6678468,29.1350725 L39.6678468,5.8273913 Z M13.3804191,7.46327316e-13 L11.8512283,7.46327316e-13 L11.8512283,11.8855797 L8.00900772e-14,11.8855797 L8.00900772e-14,13.4192029 L13.3804191,13.4192029 L13.3804191,7.46327316e-13 Z M13.3804191,21.5432609 L13.3804191,34.9615217 L9.55650289,34.9615217 L9.55650289,25.3763768 L8.00900772e-14,25.3763768 L8.00900772e-14,21.5432609 L13.3804191,21.5432609 Z" id="Fill-1"></path>
                </g>
            </g>
        </g>
    </g>
</svg>